<svg id="Layer_1" data-name="Layer 1" xmlns="http://www.w3.org/2000/svg" viewBox="0 0 423.81 98.13"><defs><style>.cls-1{fill:#6d4494;}.cls-2{fill:#0c2536;}</style></defs><path class="cls-1" d="M41.09,51.17a2.43,2.43,0,0,0-.74.12l-16.3,5a2.47,2.47,0,0,0-.39,4.56L29.91,64a2.46,2.46,0,0,1,1.19,1.31l2.07,5.32a2.42,2.42,0,0,0,2.29,1.57,2.44,2.44,0,0,0,2.34-1.66l5.61-16.12A2.47,2.47,0,0,0,41.09,51.17Z"/><path class="cls-1" d="M99.55,15.69a2.77,2.77,0,0,0-1.47-1.37c-2.49-.89-5-1.65-7.56-2.46Q72.25,6,54,.17a2.85,2.85,0,0,0-2.12.07c-5,3.16-10,6.4-14.94,9.66a1.79,1.79,0,0,0-.73,1.37,2.17,2.17,0,0,0,1,1.29,9,9,0,0,0,1.89.65c.26,2.26.52,4.27.74,6.28a5.17,5.17,0,0,1,0,2Q35.32,35.7,30.76,49.89c-.1.31-.21.62-.3.93l.46-.15,3-.93q4.13-12.91,8.28-25.86c6.33,5,10.91,5.22,17.13.68,1.14,4.39,3.68,7.57,8,9s8.28.38,11.83-2.61c2.21,7.06,6.94,10.25,14.38,9.4L84.19,69.52,50.6,58.76c.13-.45.26-.83.39-1.22l4.92-15.36c.58-1.81.17-2.58-1.63-3.16-3.06-1-6.14-2-9.2-2.93-1.65-.54-2.49-.1-3,1.56l-3.4,10.63.7-.22a6.42,6.42,0,0,1,1.73-.26,5.57,5.57,0,0,1,.83.07C42.86,45,43.8,42,44.76,39l7.41,2.37c.24.08.47.2.78.33-1.73,5.39-3.45,10.74-5.17,16.15L46,57.29l-1,2.76Q63.4,65.94,81.78,71.84l.68-.44a33.07,33.07,0,0,0,5.9-5.1Q92.67,52.89,97,39.48l-.35-3.81a9.89,9.89,0,0,1-8.09,1.64c-4.38-1.16-7.5-6.17-6.31-10.24q7.31,2.33,14.49,4.64a5.18,5.18,0,0,1,1.81-2.59L41,10.67c3.93-2.55,7.72-5,11.53-7.43a2.06,2.06,0,0,1,1.47,0Q70.25,8.4,86.52,13.63c3.2,1,6.42,2,9.61,3.11a1.81,1.81,0,0,1,1.08.83C98.6,21,100,24.44,101.34,28l.53,0a5.42,5.42,0,0,1,2.84.8Q102.21,22.19,99.55,15.69Zm-37.22,5L79,26.07c-1.06,3.67-6.27,6-10.55,4.81S61.13,24.68,62.33,20.7ZM42.39,14.32l16.76,5.37c-1.25,3.76-6.21,6-10.5,4.84A8.93,8.93,0,0,1,42.39,14.32ZM27.51,51.48a2.12,2.12,0,0,0-1.51.71l2.06-.64A5.17,5.17,0,0,0,27.51,51.48Z"/><path class="cls-1" d="M72.9,59.52A6.28,6.28,0,0,1,72,58.43q-3.49-7.07-7-14.17a1.38,1.38,0,0,1,.61-2,1.37,1.37,0,0,1,2,.73c2.31,4.69,4.63,9.37,6.87,14.09a2,2,0,0,1-.13,1.69C74.15,59.16,73.45,59.26,72.9,59.52Z"/><path class="cls-1" d="M74.89,43.48a7.33,7.33,0,0,1,.91,1.1c.85,1.66,1.66,3.35,2.48,5a1.47,1.47,0,1,1-2.61,1.32c-.85-1.7-1.73-3.39-2.48-5.15a1.87,1.87,0,0,1,.19-1.58C73.66,43.81,74.33,43.72,74.89,43.48Z"/><path class="cls-1" d="M66.52,57c-.44.28-.85.72-1.31.78a1.54,1.54,0,0,1-1.29-.52q-1.53-2.82-2.85-5.75a1.44,1.44,0,0,1,2.64-1.13q1.38,2.7,2.67,5.45A4.77,4.77,0,0,1,66.52,57Z"/><path class="cls-1" d="M48.1,47.36a44.79,44.79,0,0,1-1.48,4.46,5.88,5.88,0,0,0-.78-1.54,5.63,5.63,0,0,0-1.35-1.36c.25-.76.51-1.54.78-2.3a1.38,1.38,0,0,1,1.72-1A1.35,1.35,0,0,1,48.1,47.36Z"/><path class="cls-2" d="M169.17,95.58l-.08-30.48-15,25.11h-5.29L134,65.75V95.58h-11V44.78h9.72l19,31.56L170.4,44.78h9.65l.15,50.8Z"/><path class="cls-2" d="M221.27,60.27q4.86,4.32,4.86,13V95.58H215.54V90.71q-3.19,5.45-11.9,5.45a18.4,18.4,0,0,1-7.8-1.53,11.56,11.56,0,0,1-5.05-4.21,11,11,0,0,1-1.74-6.09,10.2,10.2,0,0,1,4.1-8.57q4.09-3.12,12.66-3.12h9A7.21,7.21,0,0,0,212.56,67q-2.25-2-6.75-2a19.8,19.8,0,0,0-6.13,1,16.13,16.13,0,0,0-5.11,2.65l-4.07-7.91a24.44,24.44,0,0,1,7.66-3.48A33.94,33.94,0,0,1,207.34,56Q216.41,56,221.27,60.27Zm-9.65,26.92a7.32,7.32,0,0,0,3.19-4v-4h-7.76q-7,0-7,4.57a4.08,4.08,0,0,0,1.71,3.45,7.7,7.7,0,0,0,4.68,1.27A9.82,9.82,0,0,0,211.62,87.19Z"/><path class="cls-2" d="M272,60.31q4.47,4.35,4.47,12.91V95.58H265.1V75c0-3.1-.67-5.41-2-6.93a7.42,7.42,0,0,0-5.88-2.29,9,9,0,0,0-6.82,2.65c-1.69,1.76-2.54,4.39-2.54,7.87V95.58H236.51V41.73h11.32V60.6a15.15,15.15,0,0,1,5.44-3.45,19.7,19.7,0,0,1,7-1.2Q267.5,56,272,60.31Z"/><path class="cls-2" d="M316.48,60.27q4.86,4.32,4.87,13V95.58h-10.6V90.71q-3.19,5.45-11.9,5.45a18.4,18.4,0,0,1-7.8-1.53A11.61,11.61,0,0,1,286,90.42a11,11,0,0,1-1.74-6.09,10.2,10.2,0,0,1,4.1-8.57q4.09-3.12,12.67-3.12h9A7.21,7.21,0,0,0,307.77,67q-2.25-2-6.74-2a19.86,19.86,0,0,0-6.14,1,16.23,16.23,0,0,0-5.11,2.65l-4.07-7.91a24.44,24.44,0,0,1,7.66-3.48A34,34,0,0,1,302.55,56Q311.63,56,316.48,60.27Zm-9.65,26.92a7.28,7.28,0,0,0,3.19-4v-4h-7.76q-7,0-7,4.57A4.08,4.08,0,0,0,297,87.27a7.7,7.7,0,0,0,4.68,1.27A9.82,9.82,0,0,0,306.83,87.19Z"/><path class="cls-2" d="M331.72,41.73H343V95.58H331.72Z"/><path class="cls-2" d="M383.39,60.27q4.86,4.32,4.87,13V95.58h-10.6V90.71q-3.2,5.45-11.9,5.45a18.4,18.4,0,0,1-7.8-1.53,11.56,11.56,0,0,1-5-4.21,11,11,0,0,1-1.74-6.09,10.2,10.2,0,0,1,4.1-8.57q4.1-3.12,12.67-3.12h9A7.21,7.21,0,0,0,374.68,67q-2.25-2-6.74-2a19.81,19.81,0,0,0-6.14,1,16.13,16.13,0,0,0-5.11,2.65l-4.07-7.91a24.44,24.44,0,0,1,7.66-3.48A33.94,33.94,0,0,1,369.46,56Q378.54,56,383.39,60.27Zm-9.65,26.92a7.32,7.32,0,0,0,3.19-4v-4h-7.76q-7,0-7,4.57a4.08,4.08,0,0,0,1.71,3.45,7.7,7.7,0,0,0,4.68,1.27A9.82,9.82,0,0,0,373.74,87.19Z"/><path class="cls-2" d="M423.81,93.69a11.64,11.64,0,0,1-4.1,1.85,20.73,20.73,0,0,1-5.11.62q-7,0-10.78-3.56T400,82.15v-16h-6V57.4h6V47.9h11.32v9.5h9.73v8.71h-9.73V82a5.33,5.33,0,0,0,1.27,3.81,4.72,4.72,0,0,0,3.59,1.34,7.29,7.29,0,0,0,4.58-1.45Z"/><path class="cls-1" d="M353.85,35.47a3.57,3.57,0,0,1-1.05-2.63,3.42,3.42,0,0,1,1.05-2.61,3.85,3.85,0,0,1,5.18,0,3.39,3.39,0,0,1,1.06,2.61,3.67,3.67,0,0,1-6.24,2.63Z"/><path class="cls-1" d="M396.07,17.94q2.24,2.23,2.23,6.71V36.22h-5.86V25.55a5.45,5.45,0,0,0-1-3.59,3.49,3.49,0,0,0-2.83-1.18,4.21,4.21,0,0,0-3.27,1.33,5.76,5.76,0,0,0-1.21,4V36.22h-5.86V25.55c0-3.18-1.27-4.77-3.83-4.77a4.16,4.16,0,0,0-3.23,1.33,5.76,5.76,0,0,0-1.2,4V36.22h-5.86V16h5.59v2.33a7.44,7.44,0,0,1,2.77-2,9.28,9.28,0,0,1,3.58-.67,8.72,8.72,0,0,1,3.87.84A6.89,6.89,0,0,1,382.74,19a8.42,8.42,0,0,1,3.14-2.44,10,10,0,0,1,4.15-.86A8.17,8.17,0,0,1,396.07,17.94Z"/><path class="cls-1" d="M419,17.94q2.52,2.23,2.52,6.75V36.22H416V33.71c-1.11,1.87-3.16,2.81-6.17,2.81a9.52,9.52,0,0,1-4-.79,6,6,0,0,1-2.61-2.17,5.69,5.69,0,0,1-.9-3.16A5.26,5.26,0,0,1,404.44,26c1.42-1.08,3.6-1.62,6.56-1.62h4.66a3.73,3.73,0,0,0-1.17-3,5.11,5.11,0,0,0-3.49-1,10.35,10.35,0,0,0-3.17.5,8.3,8.3,0,0,0-2.65,1.38l-2.11-4.1a12.5,12.5,0,0,1,4-1.8,17.56,17.56,0,0,1,4.75-.64C414.92,15.71,417.33,16.45,419,17.94Zm-5,13.94a3.82,3.82,0,0,0,1.65-2V27.77h-4c-2.41,0-3.61.79-3.61,2.37a2.12,2.12,0,0,0,.88,1.78,4,4,0,0,0,2.43.66A5.07,5.07,0,0,0,414,31.88Z"/><path class="cls-2" d="M55.72,89.18a6.61,6.61,0,0,0-1-2.05,6.88,6.88,0,0,0-5.54-2.81q-.33,0-.66,0a7.38,7.38,0,0,0-1.64.37,6.9,6.9,0,0,0,2.28,13.41c.22,0,.45,0,.67,0a6.91,6.91,0,0,0,6.24-7c0-.17,0-.33,0-.5A6.35,6.35,0,0,0,55.72,89.18Z"/><path class="cls-2" d="M92.38,82.18a6.76,6.76,0,0,0-4.12-1.55H88q-.33,0-.66,0a6.9,6.9,0,0,0-6.16,5.79,6.64,6.64,0,0,0-.06,1.73l0,.22a6.9,6.9,0,0,0,6.83,6l.67,0a6.89,6.89,0,0,0,3.7-12.21Z"/><path class="cls-2" d="M30.31,46.81l-1.2-12.6a11.83,11.83,0,0,0-11.76-10.7,10.8,10.8,0,0,0-1.13,0L4.93,24.64a5.45,5.45,0,0,0,.51,10.87,4.71,4.71,0,0,0,.53,0l11.28-1.07h.09a.93.93,0,0,1,.93.84l1.2,12.61a43.46,43.46,0,0,0,1.19,6.81,5.73,5.73,0,0,1,2.42-1.48l7.85-2.42A33.86,33.86,0,0,1,30.31,46.81Z"/><path class="cls-2" d="M92.06,77.78a10.53,10.53,0,0,0-4-.8A8.26,8.26,0,0,0,87,77a10.48,10.48,0,0,0-9.39,8.76,43.94,43.94,0,0,1-9.73,2c-1.44.14-2.85.2-4.25.2a42.82,42.82,0,0,1-4.56-.24,10.53,10.53,0,0,0-10-7.12,8.54,8.54,0,0,0-1,0,10.35,10.35,0,0,0-5.33,2.08,44.84,44.84,0,0,1-18-17.66l3.31,1.67,2,5a5.75,5.75,0,0,0,10.8-.2L41.82,69a33.37,33.37,0,0,0,21.84,8.15c1.07,0,2.13,0,3.21-.15a33.22,33.22,0,0,0,14.91-5.17l.68-.44a33.07,33.07,0,0,0,5.9-5.1A33.49,33.49,0,0,0,97.2,43.23c0-.91,0-1.84-.14-2.78l-.1-1-.35-3.81-.17-1.74a5.46,5.46,0,0,1,.26-2.22,5.18,5.18,0,0,1,1.81-2.59A5.43,5.43,0,0,1,101.34,28l.53,0a5.45,5.45,0,0,1,5.42,4.93l.62,6.53A44.35,44.35,0,0,1,92.06,77.78Z"/></svg>